<svg width="24" height="23" viewBox="0 0 24 23" fill="none" xmlns="http://www.w3.org/2000/svg">
<path d="M21 22.6917H14.0001V16.1918H10.0001V22.6917H3.00024V12.1918C3.00024 12.0592 3.05292 11.932 3.14669 11.8383C3.24046 11.7445 3.36763 11.6918 3.50024 11.6918C3.63284 11.6918 3.76002 11.7445 3.85378 11.8383C3.94755 11.932 4.00023 12.0592 4.00023 12.1918V21.6917H9.00015V15.1918H15.0001V21.6917H20V12.6918C20 12.5592 20.0527 12.432 20.1464 12.3383C20.2402 12.2445 20.3674 12.1918 20.5 12.1918C20.6326 12.1918 20.7598 12.2445 20.8535 12.3383C20.9473 12.432 21 12.5592 21 12.6918V22.6917Z" fill="#333333"/>
<path d="M23.4999 12.1918C23.3712 12.192 23.2474 12.1424 23.1544 12.0533L12.0001 1.38398L0.845782 12.0533C0.749974 12.145 0.621663 12.1949 0.489077 12.192C0.356491 12.1891 0.23049 12.1336 0.138793 12.0378C0.0470955 11.942 -0.00278649 11.8137 0.000120274 11.6811C0.00302704 11.5485 0.0584844 11.4225 0.154292 11.3308L12.0001 0L23.8454 11.3303C23.9176 11.3993 23.9675 11.4883 23.9887 11.5859C24.0098 11.6835 24.0012 11.7852 23.9641 11.8779C23.9269 11.9706 23.8628 12.0501 23.7801 12.106C23.6974 12.1619 23.5998 12.1918 23.4999 12.1918ZM19.5 6.1919C19.3674 6.1919 19.2402 6.13923 19.1464 6.04546C19.0527 5.95169 19 5.82452 19 5.69191V2.69196H16C15.8674 2.69196 15.7403 2.63928 15.6465 2.54551C15.5527 2.45175 15.5001 2.32457 15.5001 2.19197C15.5001 2.05936 15.5527 1.93219 15.6465 1.83842C15.7403 1.74465 15.8674 1.69197 16 1.69197H20V5.69191C20 5.82452 19.9473 5.95169 19.8535 6.04546C19.7598 6.13923 19.6326 6.1919 19.5 6.1919Z" fill="#333333"/>
</svg>
