<svg width="18" height="24" viewBox="0 0 18 24" fill="none" xmlns="http://www.w3.org/2000/svg">
<path d="M15.6126 23.7908H10.5137V17.2573H7.60008V23.7908H2.50122V13.2367C2.50122 13.1034 2.53959 12.9756 2.60789 12.8813C2.6762 12.7871 2.76883 12.7341 2.86543 12.7341C2.96202 12.7341 3.05466 12.7871 3.12296 12.8813C3.19126 12.9756 3.22963 13.1034 3.22963 13.2367V22.7857H6.87167V16.2522H11.2421V22.7857H14.8842V13.7393C14.8842 13.606 14.9225 13.4782 14.9908 13.3839C15.0591 13.2897 15.1518 13.2367 15.2484 13.2367C15.345 13.2367 15.4376 13.2897 15.5059 13.3839C15.5742 13.4782 15.6126 13.606 15.6126 13.7393V23.7908Z" fill="#333333"/>
<path d="M17.434 13.2366C17.3402 13.2368 17.25 13.1869 17.1823 13.0974L9.05729 2.37289L0.932247 13.0974C0.862458 13.1896 0.768994 13.2397 0.672416 13.2368C0.575837 13.2339 0.484056 13.1781 0.417261 13.0818C0.350467 12.9855 0.314132 12.8565 0.31625 12.7233C0.318367 12.59 0.358763 12.4633 0.428552 12.3712L9.05729 0.98175L17.6857 12.3707C17.7382 12.44 17.7746 12.5295 17.79 12.6276C17.8054 12.7257 17.7992 12.8279 17.7721 12.9211C17.745 13.0143 17.6983 13.0941 17.6381 13.1503C17.5778 13.2066 17.5067 13.2366 17.434 13.2366ZM14.5204 7.20567C14.4238 7.20567 14.3311 7.15272 14.2628 7.05847C14.1945 6.96422 14.1561 6.83639 14.1561 6.7031V3.68763H11.9709C11.8743 3.68763 11.7817 3.63468 11.7134 3.54043C11.6451 3.44618 11.6067 3.31834 11.6067 3.18505C11.6067 3.05176 11.6451 2.92393 11.7134 2.82968C11.7817 2.73542 11.8743 2.68247 11.9709 2.68247H14.8846V6.7031C14.8846 6.83639 14.8462 6.96422 14.7779 7.05847C14.7096 7.15272 14.6169 7.20567 14.5204 7.20567Z" fill="#333333"/>
</svg>
