<svg width="21" height="12" viewBox="0 0 21 12" fill="none" xmlns="http://www.w3.org/2000/svg">
<path d="M18.9975 5.36938H1.22657C0.647451 5.36938 0.177979 5.75941 0.177979 6.24053V6.33223C0.177979 6.81336 0.647451 7.20338 1.22657 7.20338H18.9975C19.5766 7.20338 20.0461 6.81336 20.0461 6.33223V6.24053C20.0461 5.75941 19.5766 5.36938 18.9975 5.36938Z" fill="black"/>
<path d="M18.9975 9.95422H1.22657C0.647451 9.95422 0.177979 10.3443 0.177979 10.8254V10.9171C0.177979 11.3982 0.647451 11.7882 1.22657 11.7882H18.9975C19.5766 11.7882 20.0461 11.3982 20.0461 10.9171V10.8254C20.0461 10.3443 19.5766 9.95422 18.9975 9.95422Z" fill="black"/>
<path d="M18.9975 0.78418H1.22657C0.647451 0.78418 0.177979 1.17421 0.177979 1.65533V1.74703C0.177979 2.22815 0.647451 2.61818 1.22657 2.61818H18.9975C19.5766 2.61818 20.0461 2.22815 20.0461 1.74703V1.65533C20.0461 1.17421 19.5766 0.78418 18.9975 0.78418Z" fill="black"/>
</svg>
