<svg width="24" height="17" viewBox="0 0 24 17" fill="none" xmlns="http://www.w3.org/2000/svg">
<path d="M22.7333 7.00012H1.26667C0.567106 7.00012 0 7.56723 0 8.26679V8.40012C0 9.09968 0.567106 9.66679 1.26667 9.66679H22.7333C23.4329 9.66679 24 9.09968 24 8.40012V8.26679C24 7.56723 23.4329 7.00012 22.7333 7.00012Z" fill="black"/>
<path d="M22.7333 13.6667H1.26667C0.567106 13.6667 0 14.2338 0 14.9334V15.0667C0 15.7662 0.567106 16.3334 1.26667 16.3334H22.7333C23.4329 16.3334 24 15.7662 24 15.0667V14.9334C24 14.2338 23.4329 13.6667 22.7333 13.6667Z" fill="black"/>
<path d="M22.7333 0.333313H1.26667C0.567106 0.333313 0 0.900419 0 1.59998V1.73331C0 2.43287 0.567106 2.99998 1.26667 2.99998H22.7333C23.4329 2.99998 24 2.43287 24 1.73331V1.59998C24 0.900419 23.4329 0.333313 22.7333 0.333313Z" fill="black"/>
</svg>
