<svg width="237" height="236" viewBox="0 0 237 236" fill="none" xmlns="http://www.w3.org/2000/svg">
<path d="M208.373 185.783L212.892 181.265L194.817 163.19L186.281 171.725V160.679C192.306 149.633 193.812 136.579 191.804 124.027C190.8 118.504 188.792 112.981 186.281 108.462V66.7895L183.269 63.777L138.583 19.0916L120.006 0.514526H23.6062C10.552 0.514526 0.510376 11.0583 0.510376 23.6104V212.896C0.510376 225.95 11.0541 235.992 23.6062 235.992H163.185C175.737 235.992 186.281 225.448 186.281 212.896V207.875L186.783 207.373L211.385 231.975C213.896 234.485 217.41 235.992 220.423 235.992C223.937 235.992 226.95 234.485 229.46 231.975L232.473 228.962C237.494 223.942 237.494 215.908 232.473 210.887L208.373 185.783ZM137.077 87.3749C139.587 87.3749 141.596 87.877 144.106 88.3791C147.621 88.8812 150.633 89.8854 154.148 91.3916C157.662 92.8979 161.177 94.9062 163.687 96.9145C165.194 97.9187 166.7 99.4249 168.708 101.433C170.717 103.442 172.725 105.952 174.231 108.462C175.235 109.467 175.737 110.973 176.742 112.479C179.252 116.496 180.758 121.517 181.762 126.537C183.771 137.081 181.762 148.127 176.742 157.667C174.733 161.683 171.721 165.198 168.708 168.712C164.19 173.231 159.169 176.244 154.148 178.754C144.106 183.273 133.06 183.775 122.517 180.762C114.985 178.754 107.956 174.235 101.931 168.712C100.927 167.708 99.9229 166.202 98.9187 165.198C97.4125 163.692 96.4083 162.185 95.4041 160.177C93.3958 156.662 91.3875 153.148 90.3833 149.131C85.3624 132.562 89.3791 113.985 101.931 101.433C102.433 100.931 102.433 100.931 102.935 100.429C103.94 99.4249 104.442 98.9229 105.446 98.4208C113.479 91.3916 123.521 87.3749 134.065 87.3749C134.567 87.3749 135.069 87.3749 135.571 87.3749C136.073 87.3749 136.575 86.8729 137.077 87.3749ZM122.517 16.5812L133.06 27.1249L169.21 63.2749H135.571C128.542 63.2749 122.517 57.2499 122.517 50.2208V16.5812ZM198.331 181.265L182.265 197.833L178.75 193.817L194.817 177.75L198.331 181.265ZM163.185 225.448H23.6062C16.075 225.448 10.552 219.423 10.552 212.394V22.6062C10.552 15.0749 16.577 9.55203 23.6062 9.55203H112.475V50.2208C112.475 63.2749 123.019 73.3166 135.571 73.3166H176.24V93.902C176.24 93.902 176.24 93.3999 175.737 93.3999C173.729 91.3916 171.721 89.3833 169.712 87.877C166.198 85.3666 162.181 82.8562 158.165 80.8479C154.148 79.3416 150.131 77.8354 146.115 77.3333C143.102 77.3333 140.09 77.3333 138.081 77.3333C137.579 77.3333 136.575 76.8312 136.073 77.3333C121.01 77.3333 106.45 82.8562 95.9062 93.3999L95.4041 93.902C94.3999 94.9062 93.8979 95.4083 93.3958 96.4124H31.6395V106.454H85.3624C81.3458 113.483 79.3375 121.015 78.3333 128.546H31.6395V138.587H78.3333C78.8354 142.604 79.3375 146.621 80.3416 150.135C81.3458 153.65 82.852 157.165 84.3583 160.679H31.6395V170.721H90.8854C91.8895 172.227 93.3958 173.231 94.4 174.737C101.429 181.767 109.965 186.787 119.504 189.298C122.015 189.8 124.023 190.302 126.533 190.804C127.035 190.804 127.035 190.804 127.537 190.804C130.048 191.306 132.056 191.306 134.567 191.306C134.567 191.306 134.567 191.306 135.069 191.306C135.571 191.306 135.571 191.306 136.073 191.306C137.579 191.306 139.085 191.306 140.09 191.306C140.592 191.306 141.094 191.306 141.596 191.306C143.102 191.306 144.106 190.804 145.612 190.804C146.115 190.804 146.617 190.804 147.119 190.302C148.625 189.8 150.131 189.8 151.135 189.298C151.637 189.298 151.637 189.298 152.14 188.796C154.148 188.294 155.654 187.792 157.16 186.787C162.181 184.779 167.202 181.767 171.219 177.75L174.733 181.265L163.185 192.812L175.235 204.862V211.39C176.24 219.423 170.717 225.448 163.185 225.448ZM225.444 221.431L222.431 224.444C221.427 225.448 219.419 225.448 218.415 224.444L193.812 200.344L200.842 193.315L225.444 217.917C226.95 218.419 226.95 220.427 225.444 221.431Z" fill="#DADADA"/>
</svg>
